<svg width="1000" height="1311" viewBox="0 0 7 311" fill="none" xmlns="http://www.w3.org/2000/svg">
<path d="M3.5 0.330037C2.02724 0.330037 0.833333 1.52394 0.833333 2.9967C0.833333 4.46946 2.02724 5.66337 3.5 5.66337C4.97276 5.66337 6.16667 4.46946 6.16667 2.9967C6.16667 1.52394 4.97276 0.330037 3.5 0.330037ZM3.5 305.337C2.02724 305.337 0.833333 306.531 0.833333 308.003C0.833333 309.476 2.02724 310.67 3.5 310.67C4.97276 310.67 6.16667 309.476 6.16667 308.003C6.16667 306.531 4.97276 305.337 3.5 305.337ZM3 2.9967L3 308.003H4L4 2.9967H3Z" fill="#007AFF"/>
</svg>
